<?xml version="1.0" standalone="no"?>
<!DOCTYPE svg PUBLIC "-//W3C//DTD SVG 20010904//EN"
 "http://www.w3.org/TR/2001/REC-SVG-20010904/DTD/svg10.dtd">
<svg version="1.0" xmlns="http://www.w3.org/2000/svg"
 width="300.000000pt" height="208.000000pt" viewBox="0 0 300.000000 208.000000"
 preserveAspectRatio="xMidYMid meet">
<metadata>
Created by potrace 1.10, written by Peter Selinger 2001-2011
</metadata>
<g transform="translate(0.000000,208.000000) scale(0.100000,-0.100000)"
fill="#000000" stroke="none">
<path d="M1495 2020 l-36 -60 -69 0 -69 0 -34 -57 -33 -58 -70 -3 -71 -3 -34
-59 -34 -60 -67 0 -67 0 -34 58 -33 57 -72 3 -72 3 -32 60 -33 59 -74 -2 -75
-3 -33 -55 -33 -55 -72 -5 -72 -5 -32 -55 c-18 -30 -33 -60 -34 -67 0 -7 16
-39 35 -72 l36 -61 69 0 69 0 32 -56 32 -57 -31 -56 -31 -56 -70 -3 -71 -3
-32 -59 -33 -60 -72 0 -71 0 -37 -65 -36 -66 36 -64 35 -64 72 -3 72 -3 31
-54 32 -54 -35 -60 -36 -59 35 -64 34 -64 72 0 71 0 31 -57 c17 -31 31 -60 31
-64 0 -5 -14 -31 -30 -59 -17 -28 -30 -56 -30 -63 1 -7 16 -37 34 -67 l32 -55
72 -3 72 -3 32 -59 33 -60 75 0 75 0 33 60 33 60 67 0 67 0 33 -60 33 -60 72
0 72 0 33 -60 33 -60 74 0 74 0 33 60 33 60 72 0 72 0 33 60 33 60 67 0 67 0
34 -57 33 -58 72 -3 71 -3 33 -59 33 -60 75 0 75 0 33 60 33 60 70 0 69 0 30
48 c45 70 45 81 8 145 l-32 57 -71 0 -71 0 -34 63 -34 63 33 57 32 56 72 3 71
3 34 58 34 57 69 0 68 0 34 58 33 57 72 3 72 3 35 64 36 64 -36 66 -37 65 -71
0 -72 0 -31 58 -31 57 -74 3 -74 3 -33 -61 -33 -60 -69 0 -69 0 -34 58 -33 57
-73 5 -73 5 -31 55 -31 56 35 57 34 57 71 0 72 0 36 61 c20 33 36 62 36 64 0
2 -16 31 -36 64 l-36 61 -74 0 -73 0 -34 -57 -33 -58 -70 -3 -69 -2 -33 60
-33 61 34 61 34 61 -36 63 -36 64 -70 0 -70 0 -33 60 -33 60 -74 0 -74 0 -36
-60z m206 -2 c18 -29 32 -57 32 -63 0 -5 -14 -34 -32 -62 l-33 -53 -66 0 -67
0 -30 53 c-16 28 -30 57 -30 62 0 6 14 34 30 62 l30 53 67 0 66 0 33 -52z
m-1040 -125 l32 -58 -31 -55 -30 -55 -72 0 -72 0 -30 55 -30 55 33 58 33 57
67 0 67 0 33 -57z m834 -4 l32 -55 -31 -55 -32 -54 -70 -3 -69 -3 -32 58 -31
57 31 58 32 58 68 -2 69 -3 33 -56z m414 7 c17 -29 31 -58 31 -65 0 -6 -14
-33 -31 -61 l-31 -50 -68 0 -68 0 -31 56 -32 55 33 60 33 59 67 0 67 0 30 -54z
m-1461 -122 c18 -31 32 -60 32 -65 0 -6 -15 -34 -34 -63 l-34 -54 -63 3 c-69
4 -82 14 -114 86 -16 35 -16 36 17 92 l33 57 65 0 66 0 32 -56z m400 29 c11
-16 27 -43 36 -61 16 -32 16 -33 -17 -90 l-33 -57 -65 -3 -64 -3 -33 56 c-17
31 -32 61 -32 65 0 5 15 33 33 64 l32 56 62 0 c56 0 63 -3 81 -27z m436 -33
l35 -60 -34 -58 -35 -58 -66 2 -67 1 -32 59 -33 59 35 58 34 57 64 0 64 0 35
-60z m419 -3 l32 -57 -29 -53 c-16 -28 -32 -55 -35 -59 -4 -4 -37 -5 -74 -1
l-67 6 -30 54 -30 54 32 59 33 60 68 -2 68 -3 32 -58z m-1041 -127 l30 -55
-33 -57 -33 -58 -67 0 -67 0 -31 57 c-34 62 -34 69 7 134 l28 44 68 -5 68 -5
30 -55z m414 8 l34 -60 -36 -59 -35 -59 -64 0 -63 0 -31 55 c-17 30 -31 59
-31 64 0 5 14 34 32 64 l31 56 64 -1 64 -1 35 -59z m419 -3 l32 -58 -35 -59
-35 -59 -65 3 -66 3 -33 57 -33 57 36 59 35 60 66 -3 65 -2 33 -58z m420 0
l30 -55 -32 -58 -32 -57 -68 -3 -68 -2 -33 60 -32 59 31 56 31 55 71 0 72 0
30 -55z m422 -3 l31 -57 -31 -57 -32 -58 -70 0 -70 0 -32 58 -31 57 31 57 32
58 70 0 70 0 32 -58z m-1471 -114 c16 -29 30 -56 32 -60 2 -4 -11 -32 -30 -63
l-33 -56 -68 3 -68 3 -31 56 -31 56 32 57 32 56 68 0 68 0 29 -52z m421 -6
l31 -57 -32 -55 -32 -55 -66 -3 -67 -3 -35 60 -35 61 32 55 32 55 70 0 70 0
32 -58z m418 -1 l32 -54 -35 -59 -34 -58 -67 0 -66 0 -32 59 -33 59 33 56 32
56 69 -2 70 -3 31 -54z m419 -2 l30 -55 -33 -57 -32 -57 -68 0 -68 0 -29 52
c-16 29 -30 56 -32 60 -2 4 11 32 30 63 l33 56 69 -3 69 -3 31 -56z m-1462
-119 l30 -56 -32 -57 -32 -57 -67 0 -68 0 -29 52 c-16 29 -30 56 -32 60 -2 3
11 32 29 63 l31 56 70 -3 69 -3 31 -55z m416 1 l32 -59 -32 -56 -33 -56 -69 2
-69 3 -30 55 -30 55 32 58 33 57 67 0 66 0 33 -59z m418 -1 l32 -55 -31 -57
-32 -58 -70 0 -70 0 -32 58 -31 57 31 58 32 57 69 -2 70 -3 32 -55z m415 4
l32 -57 -31 -56 -31 -56 -68 -3 -68 -3 -30 53 c-16 29 -30 58 -30 63 0 6 14
34 30 62 l30 53 67 0 67 0 32 -56z m-1462 -119 c17 -30 31 -59 31 -65 0 -6
-13 -34 -30 -63 l-29 -52 -69 3 -69 4 -31 55 c-35 59 -35 56 15 136 23 36 24
37 87 37 l64 0 31 -55z m420 -2 l33 -58 -30 -55 -30 -55 -72 0 -72 0 -31 55
-31 56 35 57 34 57 65 0 66 0 33 -57z m417 -1 l31 -58 -31 -57 -31 -57 -69 2
-70 3 -27 45 c-15 25 -28 51 -28 59 -1 7 13 38 30 67 l30 54 67 0 67 0 31 -58z
m417 -3 l31 -55 -33 -57 -32 -57 -67 0 -67 0 -32 56 -33 56 27 46 c42 75 40
73 111 70 l64 -3 31 -56z m417 4 l32 -57 -30 -56 -31 -55 -71 0 -72 0 -30 55
-30 55 33 58 33 57 67 0 67 0 32 -57z m-1877 -125 l32 -58 -32 -57 -31 -58
-68 0 -68 0 -33 58 -34 57 36 61 37 60 65 -3 65 -3 31 -57z m415 6 c18 -31 32
-60 32 -64 0 -5 -15 -33 -32 -64 l-33 -56 -65 0 -65 0 -33 60 -33 60 27 48
c42 73 41 72 108 72 l62 0 32 -56z m420 -7 l34 -58 -34 -57 -34 -57 -65 -3
-64 -3 -33 56 c-17 31 -32 61 -32 67 0 5 15 34 33 64 l32 55 64 -3 65 -3 34
-58z m416 3 l35 -60 -36 -60 c-24 -41 -41 -59 -50 -56 -8 4 -38 6 -67 6 l-51
0 -32 58 -32 57 35 58 36 57 63 0 64 0 35 -60z m415 3 l33 -58 -30 -55 -30
-55 -70 -3 -70 -3 -31 56 -31 56 32 59 33 60 65 0 66 0 33 -57z m419 -3 l33
-60 -31 -55 -32 -56 -71 3 -71 3 -27 45 c-15 25 -28 51 -28 58 -1 7 13 37 30
67 l31 55 67 0 66 0 33 -60z m420 -2 l34 -57 -34 -58 -34 -58 -67 0 -68 -1
-29 53 c-17 29 -30 57 -30 63 0 6 14 35 31 66 l31 55 66 -3 66 -3 34 -57z
m-1958 -68 c48 0 49 0 80 -55 l31 -55 -33 -60 -33 -60 -65 0 -66 0 -33 57
c-36 63 -35 65 14 143 18 28 31 40 41 36 9 -3 37 -6 64 -6z m913 -54 l34 -60
-35 -58 -35 -59 -65 3 -66 3 -33 58 -34 57 35 58 35 58 65 -1 65 0 34 -59z
m415 4 l33 -60 -33 -60 -33 -60 -66 0 -65 0 -33 63 -33 62 33 58 33 57 66 0
65 0 33 -60z m420 -4 l34 -57 -34 -57 -34 -57 -66 -3 -66 -3 -31 55 c-17 31
-31 60 -31 66 0 6 13 34 30 63 l29 53 68 -2 68 -1 33 -57z m336 54 l52 0 32
-56 32 -56 -33 -56 -33 -57 -66 -3 -65 -3 -35 59 -35 59 35 62 c24 43 39 60
49 57 8 -3 38 -6 67 -6z m-2423 -50 c15 -25 28 -51 28 -58 1 -7 -13 -37 -30
-67 l-31 -55 -66 0 -67 0 -32 59 -33 59 32 57 33 56 69 -3 70 -3 27 -45z m837
-6 l32 -56 -36 -59 -36 -60 -65 3 -65 3 -31 57 -32 56 24 44 c38 68 38 68 110
68 l67 0 32 -56z m-627 -120 l32 -57 -31 -56 -31 -56 -69 -3 -68 -3 -30 53
c-16 29 -30 56 -32 60 -2 4 11 32 30 63 l33 55 67 0 67 0 32 -56z m417 0 c18
-32 31 -60 30 -63 -2 -3 -16 -30 -33 -59 l-30 -52 -67 0 -66 0 -31 55 c-17 30
-31 59 -31 65 0 5 14 32 31 60 l31 50 67 0 67 0 32 -56z m418 -2 l31 -57 -34
-57 -34 -58 -64 0 -64 0 -34 58 c-37 62 -37 60 10 135 23 37 24 37 91 37 l67
0 31 -58z m415 2 l32 -57 -31 -56 -31 -56 -68 -3 -68 -3 -33 60 -32 59 32 56
32 56 67 0 68 0 32 -56z m421 -4 l30 -55 -33 -57 -34 -58 -67 0 -66 0 -31 55
c-17 30 -31 59 -31 65 0 5 14 32 31 60 l31 51 70 -3 69 -3 31 -55z m416 4 l32
-56 -33 -59 -32 -59 -66 0 -67 0 -35 59 -35 58 21 34 c11 19 26 44 34 57 12
19 22 22 81 22 l68 0 32 -56z m-2295 -125 l31 -55 -33 -57 -32 -57 -68 0 -68
0 -29 52 c-16 29 -30 56 -32 60 -2 4 11 32 30 63 l33 56 68 -3 69 -3 31 -56z
m417 4 l31 -58 -30 -55 -30 -55 -71 0 -71 0 -31 55 -30 56 32 57 32 57 68 0
68 0 32 -57z m417 -2 l33 -59 -32 -56 -32 -56 -68 0 -67 0 -34 57 -33 58 34
57 34 58 67 0 66 0 32 -59z m390 47 c5 -7 21 -33 35 -58 l26 -46 -35 -57 -35
-57 -66 0 -67 0 -32 59 -33 59 33 56 32 56 66 0 c42 0 70 -5 76 -12z m445 -48
l30 -55 -33 -57 -33 -58 -67 0 -66 0 -29 52 c-16 29 -30 56 -32 60 -2 4 11 32
30 63 l33 56 68 -3 68 -3 31 -55z m413 8 c17 -29 31 -56 33 -59 1 -3 -12 -32
-30 -63 l-33 -57 -69 3 -69 3 -31 56 -30 55 33 57 32 57 67 0 67 0 30 -52z
m-1874 -125 l32 -58 -30 -55 -30 -55 -72 0 -73 0 -30 55 -30 55 33 58 33 57
67 0 67 0 33 -57z m418 -1 l33 -57 -30 -55 -31 -55 -71 0 -72 0 -30 55 -31 55
32 58 33 57 66 0 67 0 34 -58z m388 46 c5 -7 21 -34 36 -59 l26 -45 -34 -60
-33 -59 -69 3 -68 3 -27 50 c-16 27 -28 54 -28 60 0 6 14 36 31 65 l30 54 64
0 c38 0 66 -5 72 -12z m442 -43 c17 -30 31 -60 30 -67 0 -7 -13 -33 -28 -58
l-27 -45 -70 -3 -69 -3 -33 56 -32 57 33 59 32 59 67 0 66 0 31 -55z m417 3
c16 -29 30 -56 32 -60 2 -4 -11 -32 -30 -63 l-33 -56 -68 3 -69 3 -31 56 -31
55 33 57 32 57 68 0 68 0 29 -52z m-1457 -130 l33 -63 -33 -57 -34 -58 -62 0
c-62 0 -63 0 -88 41 -49 77 -50 79 -13 142 l33 57 66 0 65 0 33 -62z m419 0
l34 -57 -34 -58 -34 -58 -66 0 -66 0 -31 53 c-17 30 -31 58 -31 63 0 5 14 34
31 65 l31 55 66 -3 66 -3 34 -57z m414 4 l35 -59 -35 -62 c-29 -52 -38 -62
-56 -57 -11 3 -41 6 -66 6 -44 0 -46 2 -77 55 l-32 55 36 60 35 60 63 0 63 0
34 -58z m416 2 c18 -31 32 -59 32 -64 0 -5 -14 -33 -31 -63 l-32 -54 -66 2
-66 2 -33 57 c-36 61 -36 57 15 139 23 36 24 37 86 37 l63 0 32 -56z m-1486
-80 c8 -5 58 -94 58 -104 0 -5 -14 -33 -32 -64 l-32 -56 -66 0 -65 0 -33 60
c-36 65 -37 61 15 143 l24 38 62 -7 c34 -4 65 -8 69 -10z m781 6 l52 0 33 -56
32 -56 -36 -59 -35 -59 -64 0 -63 0 -34 58 -35 59 35 62 c24 43 39 60 49 57 8
-3 38 -6 66 -6z m500 -53 l32 -57 -32 -57 -32 -58 -67 0 -68 0 -33 57 -34 58
27 47 c15 27 31 53 35 58 4 6 38 10 74 10 l67 -1 31 -57z m389 47 c8 -5 58
-94 58 -104 0 -5 -14 -33 -32 -64 l-32 -56 -66 0 -65 0 -33 60 c-36 65 -37 61
15 143 l24 38 62 -7 c34 -4 65 -8 69 -10z m-1222 -50 l31 -56 -33 -56 -34 -57
-65 -3 -65 -3 -30 53 c-16 29 -30 56 -32 60 -2 4 11 33 28 63 l31 55 69 0 68
0 32 -56z m-207 -124 l31 -56 -35 -57 -34 -58 -68 3 -68 3 -31 56 -31 56 32
57 33 57 70 -3 70 -3 31 -55z m415 4 l33 -57 -34 -56 -33 -56 -68 0 -68 0 -32
55 -32 55 33 58 34 57 67 0 68 0 32 -56z m419 -2 l31 -57 -32 -55 -32 -55 -69
0 -69 0 -32 55 -32 55 31 57 32 58 70 0 70 0 32 -58z m416 -2 l30 -55 -32 -57
-33 -58 -66 0 -67 0 -30 52 c-16 29 -31 56 -33 60 -2 3 11 32 29 63 l31 56 71
-3 70 -3 30 -55z m420 0 l31 -56 -35 -57 -34 -58 -68 3 -68 3 -31 56 -31 56
32 57 33 57 70 -3 70 -3 31 -55z m-1046 -118 l31 -57 -31 -57 -32 -58 -70 0
-70 0 -32 58 -31 57 31 57 32 58 70 0 70 0 32 -58z m833 1 l32 -57 -30 -56
-31 -55 -71 0 -71 0 -31 55 -30 56 32 57 32 57 68 0 68 0 32 -57z"/>
</g>
</svg>
